<svg width="32" height="32" viewBox="0 0 32 32" fill="none" xmlns="http://www.w3.org/2000/svg">
<path fill-rule="evenodd" clip-rule="evenodd" d="M16 32C24.8365 32 32 24.8365 32 16C32 7.16345 24.8365 0 16 0C7.16345 0 0 7.16345 0 16C0 24.8365 7.16345 32 16 32ZM24.3561 7C24.3561 7 25.4213 9.31818 24.4893 11.0909C24.4893 11.0909 26.6196 13.1364 25.8207 17.5C25.07 21.6005 21.5601 22.6818 19.2965 22.6818C19.2965 22.6818 20.1993 23.4935 20.2286 24.8636C20.2403 25.41 20.2286 27.0455 20.2286 27.0455V30.1818C20.2286 30.1818 20.2286 30.4545 20.7612 30.5909C21.2937 30.7273 21.2937 31 21.0275 31H11.4409C11.1746 31 11.1746 30.7273 11.7072 30.5909C12.2397 30.4545 12.2397 30.1818 12.2397 30.1818V27.0455C10.1094 27.5909 7.979 26.7728 7.57959 25.8182C7.18011 24.8636 6.11493 23.2273 6.11493 23.2273C4.65033 22.5455 5.04974 22.1364 5.04974 22.1364C6.38123 21.4545 7.71271 23.2273 7.71271 23.2273C7.71271 23.2273 8.37848 24.5909 9.7099 25.1364C11.0414 25.6818 12.3729 24.8636 12.3729 24.8636C12.2397 23.5 13.1718 22.6818 13.1718 22.6818C10.9083 22.6818 7.39825 21.6005 6.64752 17.5C5.84863 13.1364 7.979 11.0909 7.979 11.0909C7.047 9.31818 8.11218 7 8.11218 7C10.5089 7 12.2397 8.63635 12.2397 8.63635C13.1718 8.09088 16.2341 8.09088 16.2341 8.09088C16.2341 8.09088 19.2965 8.09088 20.2286 8.63635C20.2286 8.63635 21.9595 7 24.3561 7Z" fill="#A6A6A6"/>
</svg>
