<svg width="201" height="28" viewBox="0 0 201 28" fill="none" xmlns="http://www.w3.org/2000/svg">
<path d="M42.3824 15.28C41.7625 14.9424 41.0393 14.7735 40.2127 14.7735C39.0925 14.7735 38.2171 15.1874 37.5863 16.0151C36.9555 16.8319 36.6401 17.9482 36.6401 19.364V27.3525H31.485V10.6241H36.6401V13.728L36.7053 11.728C37.5863 11 38.9892 10.3301 41.11 10.3301C41.6538 10.3301 42.0779 10.3954 42.3824 10.5261V15.28Z" fill="#4F4F4F"/>
<path d="M61.1429 27.3525H55.9878V26.0491H55.9226C54.748 27.857 53.0242 27.7609 50.7512 27.7609C48.6631 27.7609 46.9828 27.0258 45.7104 25.5555C44.4379 24.0743 43.8017 22.0105 43.8017 19.364C43.8017 16.5978 44.5032 14.3815 45.9061 12.7152C47.3091 11.0489 49.1471 10.2157 51.4201 10.2157C53.5734 10.2157 54.5 10.2157 55.9226 11.5355H55.9878V2.58667H61.1429V27.3525ZM56.0857 19.217V17.9591C56.0857 16.87 55.7703 15.9661 55.1395 15.2473C54.5088 14.5285 53.6876 14.1691 52.6762 14.1691C51.5343 14.1691 50.6425 14.6211 50.0008 15.525C49.3591 16.4181 49.0383 17.6487 49.0383 19.217C49.0383 20.6873 49.3483 21.8199 49.9682 22.615C50.5881 23.41 51.4473 23.8075 52.5457 23.8075C53.5898 23.8075 54.4381 23.3882 55.0906 22.5496C55.754 21.711 56.0857 20.6002 56.0857 19.217Z" fill="#4F4F4F"/>
<path d="M68.0924 7.97765C67.2224 7.97765 66.51 7.72171 65.9554 7.20984C65.4007 6.68708 65.1234 6.04997 65.1234 5.2985C65.1234 4.52525 65.4007 3.89358 65.9554 3.40349C66.51 2.9134 67.2224 2.66835 68.0924 2.66835C68.9733 2.66835 69.6857 2.9134 70.2295 3.40349C70.7841 3.89358 71.0615 4.52525 71.0615 5.2985C71.0615 6.08264 70.7841 6.7252 70.2295 7.22618C69.6857 7.72716 68.9733 7.97765 68.0924 7.97765ZM70.6373 27.3525H65.4823V10.6241H70.6373V27.3525Z" fill="#4F4F4F"/>
<path d="M91.1107 27.3525H85.972V18.0571C85.972 15.4651 85.0475 14.1691 83.1987 14.1691C82.3069 14.1691 81.5728 14.5122 80.9964 15.1983C80.42 15.8844 80.1317 16.7557 80.1317 17.8121V27.3525H74.9767V10.6241H80.1317V13.2706L80.197 12.2706C81.5 10.3954 83.215 10.2157 85.5641 10.2157C89.2618 10.2157 91.1107 12.5137 91.1107 17.1096V27.3525Z" fill="#4F4F4F"/>
<path d="M109.104 27.3525H104.227V24.9511H104.161C103.041 26.8243 101.383 27.7609 99.1859 27.7609C97.5654 27.7609 96.2875 27.3035 95.3522 26.3887C94.4278 25.4629 93.9656 24.2323 93.9656 22.6966C93.9656 19.4512 95.8851 17.5779 99.7242 17.077L104.259 16.4725C104.259 14.6429 103.27 13.728 101.29 13.728C99.3 13.728 97.4077 14.3216 95.6132 15.5087V11.6206C96.331 11.2504 97.3098 10.9236 98.5496 10.6405C99.8003 10.3573 100.937 10.2157 101.959 10.2157C106.723 10.2157 109.104 12.5954 109.104 17.3547V27.3525ZM104.259 20.5566V19.4294L101.225 19.8215C99.5502 20.0393 98.7128 20.7962 98.7128 22.0922C98.7128 22.6803 98.914 23.165 99.3164 23.5461C99.7296 23.9164 100.284 24.1016 100.98 24.1016C101.948 24.1016 102.737 23.7694 103.346 23.1051C103.955 22.4298 104.259 21.5803 104.259 20.5566Z" fill="#4F4F4F"/>
<path d="M118.338 27.3525H113.183V2.58667H118.338V27.3525Z" fill="#4F4F4F"/>
<path d="M153.803 26.7481C152.64 27.4233 150.959 27.7609 148.762 27.7609C146.196 27.7609 144.119 26.9822 142.531 25.4248C140.943 23.8674 140.149 21.8581 140.149 19.3967C140.149 16.5542 140.997 14.3161 142.694 12.6825C144.401 11.038 146.68 10.2157 149.529 10.2157C151.498 10.2157 152.922 10.4771 153.803 10.9999V15.378C152.727 14.5721 151.525 14.1691 150.198 14.1691C148.719 14.1691 147.544 14.6047 146.674 15.476C145.815 16.3364 145.386 17.5289 145.386 19.0537C145.386 20.5348 145.799 21.7001 146.625 22.5496C147.452 23.3882 148.588 23.8075 150.035 23.8075C151.318 23.8075 152.574 23.4046 153.803 22.5986V26.7481Z" fill="#4F4F4F"/>
<path d="M171.096 27.3525H166.218V24.9511H166.153C165.032 26.8243 163.374 27.7609 161.177 27.7609C159.557 27.7609 158.279 27.3035 157.343 26.3887C156.419 25.4629 155.957 24.2323 155.957 22.6966C155.957 19.4512 157.876 17.5779 161.715 17.077L166.25 16.4725C166.25 14.6429 165.261 13.728 163.281 13.728C161.291 13.728 159.399 14.3216 157.604 15.5087V11.6206C158.322 11.2504 159.301 10.9236 160.541 10.6405C161.791 10.3573 162.928 10.2157 163.95 10.2157C168.714 10.2157 171.096 12.5954 171.096 17.3547V27.3525ZM166.25 20.5566V19.4294L163.216 19.8215C161.541 20.0393 160.704 20.7962 160.704 22.0922C160.704 22.6803 160.905 23.165 161.307 23.5461C161.721 23.9164 162.275 24.1016 162.971 24.1016C163.939 24.1016 164.728 23.7694 165.337 23.1051C165.946 22.4298 166.25 21.5803 166.25 20.5566Z" fill="#4F4F4F"/>
<path d="M191.308 27.3525H186.169V18.0571C186.169 15.4651 185.245 14.1691 183.396 14.1691C182.504 14.1691 181.77 14.5122 181.194 15.1983C180.617 15.8844 180.329 16.7557 180.329 17.8121V27.3525H175.174V10.6241H180.329V12.2706H180.394C181.623 10.234 183.412 10.2157 185.761 10.2157C189.459 10.2157 191.308 12.5137 191.308 17.1096V27.3525Z" fill="#4F4F4F"/>
<path d="M197.703 27.7609C196.854 27.7609 196.148 27.4995 195.582 26.9768C195.016 26.454 194.734 25.8114 194.734 25.0491C194.734 24.2649 195.022 23.6224 195.598 23.1214C196.186 22.6204 196.914 22.3699 197.784 22.3699C198.665 22.3699 199.383 22.6259 199.938 23.1377C200.503 23.6387 200.786 24.2758 200.786 25.0491C200.786 25.8441 200.498 26.4976 199.921 27.0094C199.356 27.5104 198.616 27.7609 197.703 27.7609Z" fill="#4F4F4F"/>
<path d="M124.197 26.9114V22.7293C125.045 23.2412 125.888 23.6224 126.725 23.8729C127.574 24.1234 128.373 24.2486 129.124 24.2486C130.037 24.2486 130.755 24.1234 131.277 23.8729C131.81 23.6224 132.076 23.2412 132.076 22.7293C132.076 22.4026 131.957 22.1303 131.717 21.9125C131.478 21.6947 131.168 21.5041 130.788 21.3407C130.418 21.1774 130.01 21.0303 129.564 20.8997C129.118 20.769 128.689 20.6219 128.275 20.4586C127.612 20.2081 127.025 19.9413 126.513 19.6581C126.013 19.364 125.589 19.0264 125.241 18.6453C124.904 18.2641 124.643 17.823 124.458 17.322C124.284 16.821 124.197 16.2275 124.197 15.5414C124.197 14.6047 124.398 13.7988 124.8 13.1236C125.214 12.4483 125.758 11.8984 126.432 11.4736C127.117 11.038 127.895 10.7221 128.765 10.5261C129.646 10.3192 130.559 10.2157 131.505 10.2157C132.245 10.2157 132.995 10.2756 133.757 10.3954C134.518 10.5043 135.268 10.6677 136.008 10.8855V14.8716C135.355 14.4904 134.654 14.2072 133.903 14.0221C133.164 13.826 132.435 13.728 131.717 13.728C131.38 13.728 131.059 13.7607 130.755 13.826C130.461 13.8805 130.2 13.9676 129.972 14.0874C129.743 14.1963 129.564 14.3434 129.434 14.5285C129.303 14.7028 129.238 14.9042 129.238 15.1329C129.238 15.4379 129.336 15.6993 129.531 15.9171C129.727 16.1349 129.983 16.3255 130.298 16.4889C130.613 16.6413 130.962 16.7829 131.342 16.9136C131.734 17.0334 132.12 17.1586 132.5 17.2893C133.186 17.5289 133.806 17.7903 134.36 18.0735C134.915 18.3566 135.388 18.6888 135.779 19.07C136.182 19.4512 136.486 19.8977 136.693 20.4096C136.91 20.9214 137.019 21.5313 137.019 22.2392C137.019 23.2303 136.802 24.0798 136.367 24.7877C135.943 25.4847 135.372 26.0565 134.654 26.503C133.947 26.9386 133.126 27.2545 132.19 27.4505C131.266 27.6574 130.304 27.7609 129.303 27.7609C127.465 27.7609 125.763 27.4777 124.197 26.9114Z" fill="#F5BD07"/>
<path fill-rule="evenodd" clip-rule="evenodd" d="M13.8803 28C21.5462 28 27.7607 21.732 27.7607 14C27.7607 6.26801 21.5462 0 13.8803 0C6.21444 0 0 6.26801 0 14C0 21.732 6.21444 28 13.8803 28ZM13.7607 20.8205C17.5275 20.8205 20.5812 17.7669 20.5812 14C20.5812 10.2331 17.5275 7.17949 13.7607 7.17949C9.99382 7.17949 6.94017 10.2331 6.94017 14C6.94017 17.7669 9.99382 20.8205 13.7607 20.8205Z" fill="#F5BD07"/>
<path d="M7.59083 16.9644C6.80779 15.4681 6.91365 14.5327 6.81439 14.1129C5.8669 14.8788 4.55812 16.7277 6.00043 18.7246C7.80331 21.2208 20.1219 16.7037 21.6553 12.4122C22.8972 8.9365 19.6161 8.22458 17.878 8.56622C19.1 9.53666 19.6427 10.5337 19.9228 11.286C19.5869 12.1003 18.0801 13.9921 14.1133 15.9553C10.1464 17.9184 8.12146 17.4176 7.59083 16.9644Z" fill="#A5810D"/>
</svg>
