<svg width="60" height="60" viewBox="0 0 60 60" fill="none" xmlns="http://www.w3.org/2000/svg">
<path d="M0 0H60V60H0V0Z" fill="white"/>
<path d="M55 32.3537C54.3019 31.9721 53.4874 31.7812 52.5565 31.7812C51.295 31.7812 50.3091 32.2491 49.5987 33.1847C48.8883 34.108 48.5331 35.3698 48.5331 36.9702V46H42.7276V27.0909H48.5331V30.5994H48.6066C49.5252 28.0388 51.1787 26.7585 53.567 26.7585C54.1794 26.7585 54.6571 26.8324 55 26.9801V32.3537Z" fill="#4F4F4F"/>
<path d="M22.0543 46C17.613 46 13.9936 44.5615 11.1962 41.6844C8.39873 38.793 7 35.0312 7 30.3992C7 25.5082 8.42036 21.5523 11.2611 18.5314C14.1018 15.5105 17.8654 14 22.5518 14C26.9787 14 30.5549 15.4457 33.2802 18.3372C36.02 21.2286 37.3899 25.0407 37.3899 29.7734C37.3899 34.6356 35.9695 38.5556 33.1288 41.5334C30.3025 44.5111 26.611 46 22.0543 46ZM22.3572 19.9987C19.9058 19.9987 17.9591 20.9193 16.5171 22.7606C15.0751 24.5875 14.3541 27.0115 14.3541 30.0324C14.3541 33.0964 15.0751 35.5203 16.5171 37.3041C17.9591 39.0879 19.8481 39.9798 22.1841 39.9798C24.5922 39.9798 26.5029 39.1167 27.916 37.3904C29.3292 35.6498 30.0357 33.2403 30.0357 30.1618C30.0357 26.9539 29.3508 24.4581 27.9809 22.6743C26.611 20.8905 24.7364 19.9987 22.3572 19.9987Z" fill="#F5BD07"/>
</svg>
