<svg width="34" height="34" viewBox="0 0 34 34" fill="none" xmlns="http://www.w3.org/2000/svg">
<path fill-rule="evenodd" clip-rule="evenodd" d="M17 34C26.3888 34 34 26.3888 34 17C34 7.61116 26.3888 0 17 0C7.61116 0 0 7.61116 0 17C0 26.3888 7.61116 34 17 34ZM16.8534 25.2821C21.4669 25.2821 25.2069 21.574 25.2069 17C25.2069 12.4259 21.4669 8.71795 16.8534 8.71795C12.24 8.71795 8.5 12.4259 8.5 17C8.5 21.574 12.24 25.2821 16.8534 25.2821Z" fill="#F5BD07"/>
<path d="M9.2969 20.5996C8.33786 18.7827 8.46752 17.6469 8.34595 17.137C7.1855 18.0671 5.58257 20.3122 7.34904 22.737C9.55713 25.7681 24.6444 20.283 26.5224 15.0719C28.0435 10.8515 24.0249 9.98699 21.8961 10.4018C23.3928 11.5802 24.0574 12.791 24.4005 13.7044C23.9891 14.6932 22.1436 16.9904 17.2853 19.3743C12.4269 21.7581 9.94679 21.1499 9.2969 20.5996Z" fill="#A5810D"/>
</svg>
