<svg width="196" height="28" viewBox="0 0 196 28" fill="none" xmlns="http://www.w3.org/2000/svg">
<path d="M41.5565 15.8311C40.9521 15.5019 40.2469 15.3373 39.441 15.3373C38.3488 15.3373 37.4952 15.7408 36.8802 16.5478C36.2652 17.3442 35.9577 18.4326 35.9577 19.8131V27.6018H30.9315V11.2916H35.9577V14.3179H36.0213C36.8166 12.1093 38.2481 11.0049 40.3158 11.0049C40.846 11.0049 41.2596 11.0687 41.5565 11.1961V15.8311Z" fill="#4F4F4F"/>
<path d="M59.8479 27.6018H54.8218V25.356H54.7581C53.6129 27.1187 51.9322 28 49.7161 28C47.6801 28 46.0419 27.2832 44.8012 25.8497C43.5606 24.4056 42.9403 22.3934 42.9403 19.8131C42.9403 17.1159 43.6242 14.9551 44.9921 13.3304C46.36 11.7058 48.152 10.8934 50.3682 10.8934C52.4677 10.8934 53.931 11.6474 54.7581 13.1552H54.8218V3.45513H59.8479V27.6018ZM54.9172 19.6697V18.4433C54.9172 17.3814 54.6097 16.5001 53.9947 15.7992C53.3797 15.0984 52.5791 14.748 51.5929 14.748C50.4795 14.748 49.61 15.1887 48.9844 16.07C48.3588 16.9407 48.046 18.1406 48.046 19.6697C48.046 21.1032 48.3482 22.2076 48.9526 22.9827C49.557 23.7579 50.3947 24.1455 51.4657 24.1455C52.4836 24.1455 53.3107 23.7366 53.947 22.919C54.5938 22.1014 54.9172 21.0183 54.9172 19.6697Z" fill="#4F4F4F"/>
<path d="M66.6237 8.71133C65.7754 8.71133 65.0809 8.46179 64.5401 7.96272C63.9993 7.45303 63.7289 6.83184 63.7289 6.09916C63.7289 5.34524 63.9993 4.72936 64.5401 4.25152C65.0809 3.77368 65.7754 3.53477 66.6237 3.53477C67.4826 3.53477 68.1772 3.77368 68.7074 4.25152C69.2482 4.72936 69.5185 5.34524 69.5185 6.09916C69.5185 6.86369 69.2482 7.49019 68.7074 7.97865C68.1772 8.4671 67.4826 8.71133 66.6237 8.71133ZM69.105 27.6018H64.0788V11.2916H69.105V27.6018Z" fill="#4F4F4F"/>
<path d="M89.0666 27.6018H84.0563V18.5388C84.0563 16.0116 83.155 14.748 81.3523 14.748C80.4828 14.748 79.7671 15.0825 79.2051 15.7515C78.6431 16.4204 78.3621 17.2699 78.3621 18.2999V27.6018H73.3359V11.2916H78.3621V13.872H78.4257C79.6239 11.8863 81.3682 10.8934 83.6586 10.8934C87.2639 10.8934 89.0666 13.134 89.0666 17.615V27.6018Z" fill="#4F4F4F"/>
<path d="M106.61 27.6018H101.855V25.2604H101.791C100.699 27.0868 99.0818 28 96.9398 28C95.3599 28 94.1139 27.554 93.202 26.6621C92.3007 25.7595 91.85 24.5596 91.85 23.0624C91.85 19.898 93.7216 18.0716 97.4647 17.5832L101.886 16.9938C101.886 15.2099 100.922 14.3179 98.9917 14.3179C97.0512 14.3179 95.2061 14.8967 93.4565 16.0541V12.2632C94.1563 11.9022 95.1107 11.5837 96.3195 11.3076C97.5389 11.0315 98.647 10.8934 99.6438 10.8934C104.288 10.8934 106.61 13.2136 106.61 17.8539V27.6018ZM101.886 20.9758V19.8768L98.928 20.259C97.2951 20.4714 96.4786 21.2094 96.4786 22.473C96.4786 23.0464 96.6747 23.519 97.0671 23.8906C97.47 24.2516 98.0108 24.4322 98.6894 24.4322C99.6332 24.4322 100.402 24.1083 100.996 23.4606C101.59 22.8022 101.886 21.9739 101.886 20.9758Z" fill="#4F4F4F"/>
<path d="M115.613 27.6018H110.587V3.45513H115.613V27.6018Z" fill="#4F4F4F"/>
<path d="M150.192 27.0125C149.057 27.6708 147.419 28 145.277 28C142.775 28 140.749 27.2408 139.201 25.7223C137.653 24.2039 136.879 22.2447 136.879 19.8449C136.879 17.0735 137.706 14.8913 139.36 13.2986C141.025 11.6952 143.246 10.8934 146.025 10.8934C147.944 10.8934 149.333 11.1483 150.192 11.658V15.9267C149.142 15.1409 147.97 14.748 146.677 14.748C145.235 14.748 144.089 15.1727 143.241 16.0222C142.403 16.8611 141.985 18.0238 141.985 19.5104C141.985 20.9546 142.387 22.0908 143.193 22.919C143.999 23.7366 145.107 24.1455 146.518 24.1455C147.769 24.1455 148.994 23.7526 150.192 22.9668V27.0125Z" fill="#4F4F4F"/>
<path d="M167.052 27.6018H162.296V25.2604H162.232C161.14 27.0868 159.523 28 157.381 28C155.801 28 154.555 27.554 153.643 26.6621C152.742 25.7595 152.291 24.5596 152.291 23.0624C152.291 19.898 154.163 18.0716 157.906 17.5832L162.328 16.9938C162.328 15.2099 161.363 14.3179 159.433 14.3179C157.493 14.3179 155.647 14.8967 153.898 16.0541V12.2632C154.598 11.9022 155.552 11.5837 156.761 11.3076C157.98 11.0315 159.088 10.8934 160.085 10.8934C164.73 10.8934 167.052 13.2136 167.052 17.8539V27.6018ZM162.328 20.9758V19.8768L159.369 20.259C157.736 20.4714 156.92 21.2094 156.92 22.473C156.92 23.0464 157.116 23.519 157.508 23.8906C157.911 24.2516 158.452 24.4322 159.131 24.4322C160.075 24.4322 160.843 24.1083 161.437 23.4606C162.031 22.8022 162.328 21.9739 162.328 20.9758Z" fill="#4F4F4F"/>
<path d="M186.759 27.6018H181.749V18.5388C181.749 16.0116 180.847 14.748 179.045 14.748C178.175 14.748 177.459 15.0825 176.897 15.7515C176.335 16.4204 176.054 17.2699 176.054 18.2999V27.6018H171.028V11.2916H176.054V13.872H176.118C177.316 11.8863 179.061 10.8934 181.351 10.8934C184.956 10.8934 186.759 13.134 186.759 17.615V27.6018Z" fill="#4F4F4F"/>
<path d="M192.994 28C192.167 28 191.478 27.7452 190.926 27.2355C190.375 26.7258 190.099 26.0993 190.099 25.356C190.099 24.5914 190.38 23.9649 190.942 23.4765C191.515 22.988 192.225 22.7438 193.073 22.7438C193.932 22.7438 194.632 22.9933 195.173 23.4924C195.724 23.9809 196 24.602 196 25.356C196 26.1311 195.719 26.7682 195.157 27.2673C194.606 27.7558 193.885 28 192.994 28Z" fill="#4F4F4F"/>
<path d="M13.0334 27.6018C9.18833 27.6018 6.05481 26.361 3.63289 23.8794C1.21096 21.3853 0 18.1406 0 14.1452C0 9.92647 1.22969 6.51425 3.68906 3.90855C6.14844 1.30285 9.4068 0 13.4641 0C17.2968 0 20.3929 1.24701 22.7524 3.74104C25.1243 6.23507 26.3103 9.52321 26.3103 13.6055C26.3103 17.7994 25.0806 21.1806 22.6213 23.7491C20.1744 26.3176 16.9784 27.6018 13.0334 27.6018ZM13.2956 5.17417C11.1733 5.17417 9.48795 5.96829 8.23954 7.55653C6.99112 9.13236 6.36691 11.2231 6.36691 13.8288C6.36691 16.4717 6.99112 18.5625 8.23954 20.1011C9.48795 21.6397 11.1234 22.409 13.1458 22.409C15.2307 22.409 16.8848 21.6645 18.1083 20.1756C19.3317 18.6742 19.9434 16.5958 19.9434 13.9405C19.9434 11.1735 19.3504 9.02068 18.1644 7.48208C16.9784 5.94348 15.3555 5.17417 13.2956 5.17417Z" fill="#F5BD07"/>
<path d="M121.326 27.1717V23.0942C122.153 23.5933 122.974 23.9649 123.791 24.2092C124.618 24.4534 125.397 24.5755 126.129 24.5755C127.02 24.5755 127.72 24.4534 128.229 24.2092C128.748 23.9649 129.008 23.5933 129.008 23.0942C129.008 22.7757 128.891 22.5102 128.658 22.2978C128.425 22.0854 128.123 21.8996 127.751 21.7403C127.391 21.5811 126.993 21.4377 126.559 21.3103C126.124 21.1829 125.705 21.0395 125.302 20.8802C124.655 20.636 124.083 20.3759 123.584 20.0998C123.096 19.8131 122.683 19.4839 122.344 19.1122C122.015 18.7406 121.76 18.3105 121.58 17.8221C121.41 17.3336 121.326 16.7549 121.326 16.0859C121.326 15.1727 121.522 14.387 121.914 13.7286C122.317 13.0703 122.847 12.534 123.505 12.1199C124.173 11.6952 124.931 11.3872 125.779 11.1961C126.638 10.9943 127.529 10.8934 128.451 10.8934C129.172 10.8934 129.904 10.9519 130.646 11.0687C131.389 11.1748 132.12 11.3341 132.841 11.5465V15.4329C132.205 15.0612 131.521 14.7852 130.789 14.6046C130.068 14.4135 129.358 14.3179 128.658 14.3179C128.329 14.3179 128.017 14.3498 127.72 14.4135C127.433 14.4666 127.179 14.5516 126.956 14.6684C126.733 14.7745 126.559 14.9179 126.431 15.0984C126.304 15.2683 126.24 15.4648 126.24 15.6877C126.24 15.9851 126.336 16.2399 126.527 16.4523C126.718 16.6647 126.967 16.8505 127.274 17.0098C127.582 17.1584 127.921 17.2965 128.292 17.4239C128.674 17.5407 129.05 17.6628 129.422 17.7902C130.09 18.0238 130.694 18.2787 131.235 18.5548C131.776 18.8308 132.237 19.1547 132.619 19.5264C133.011 19.898 133.308 20.3334 133.509 20.8325C133.721 21.3315 133.827 21.9262 133.827 22.6164C133.827 23.5827 133.615 24.4109 133.191 25.1011C132.778 25.7807 132.221 26.3382 131.521 26.7736C130.832 27.1983 130.031 27.5062 129.119 27.6974C128.218 27.8991 127.28 28 126.304 28C124.512 28 122.853 27.7239 121.326 27.1717Z" fill="#F5BD07"/>
</svg>
